<mxfile host="app.diagrams.net" modified="2023-06-01T09:45:52.599Z" agent="Mozilla/5.0 (Windows NT 10.0; WOW64) AppleWebKit/537.36 (KHTML, like Gecko) Chrome/102.0.0.0 Safari/537.36" version="21.3.6" etag="9Bn3fg_OsBLVauCDBg87" type="github">
  <diagram name="第 1 页" id="DRBrEUGbB-NBcA-ElpaE">
    <mxGraphModel>
      <root>
        <mxCell id="0" />
        <mxCell id="1" parent="0" />
      </root>
    </mxGraphModel>
  </diagram>
</mxfile>
